# xmcd
#
# Track frame offsets: 
#        150
#        19552
#        41400
#        60774
#        75507
#        101030
#        126577
#        148251
#        177307
#        196789
#
# Disc length: 3062 seconds
#
# Revision: 0
# Processed by: cddbd v1.5.2PL0 Copyright (c) Steve Scherf et al.
# Submitted via: ExactAudioCopy v1.0b3
#
DISCID=7e0bf40a
DTITLE=JC Anderson Band - Long Time Waiting
DYEAR=1998
DGENRE=Blues
TTITLE0=Majik
TTITLE1=Stickin' with You
TTITLE2=Don't Wanna Play No More
TTITLE3=The Joke
TTITLE4=Can't Help but Wonder
TTITLE5=So This Is Love
TTITLE6=Forget About You
TTITLE7=Cry No More
TTITLE8=Don't Abuse Me
TTITLE9=Long Time Waiting
EXTD=
EXTT0=
EXTT1=
EXTT2=
EXTT3=
EXTT4=
EXTT5=
EXTT6=
EXTT7=
EXTT8=
EXTT9=
PLAYORDER=
